<?xml version="1.0" encoding="UTF-8" standalone="no"?>
<svg
   xmlns:dc="http://purl.org/dc/elements/1.1/"
   xmlns:cc="http://creativecommons.org/ns#"
   xmlns:rdf="http://www.w3.org/1999/02/22-rdf-syntax-ns#"
   xmlns:svg="http://www.w3.org/2000/svg"
   xmlns="http://www.w3.org/2000/svg"
   xmlns:xlink="http://www.w3.org/1999/xlink"
   xmlns:sodipodi="http://sodipodi.sourceforge.net/DTD/sodipodi-0.dtd"
   xmlns:inkscape="http://www.inkscape.org/namespaces/inkscape"
   version="1.1"
   id="Layer_1"
   x="0px"
   y="0px"
   width="180"
   height="180"
   viewBox="0 0 179.99999 180"
   enable-background="new 0 0 1190.55 841.89"
   xml:space="preserve"
   inkscape:version="0.48.2 r9819"
   sodipodi:docname="bahk-logo-big.svg"
   inkscape:export-filename="/Users/larry/git/bahk-branding/generated/bahk-logo-big-256x256.png"
   inkscape:export-xdpi="128"
   inkscape:export-ydpi="128"><metadata
   id="metadata287"><rdf:RDF><cc:Work
       rdf:about=""><dc:format>image/svg+xml</dc:format><dc:type
         rdf:resource="http://purl.org/dc/dcmitype/StillImage" /><dc:title></dc:title></cc:Work></rdf:RDF></metadata><defs
   id="defs285" /><sodipodi:namedview
   pagecolor="#ffffff"
   bordercolor="#666666"
   borderopacity="1"
   objecttolerance="10"
   gridtolerance="10"
   guidetolerance="10"
   inkscape:pageopacity="0"
   inkscape:pageshadow="2"
   inkscape:window-width="1072"
   inkscape:window-height="716"
   id="namedview283"
   showgrid="false"
   fit-margin-top="0"
   fit-margin-left="0"
   fit-margin-right="0"
   fit-margin-bottom="0"
   inkscape:zoom="3.3321528"
   inkscape:cx="103.962"
   inkscape:cy="80.629598"
   inkscape:window-x="0"
   inkscape:window-y="0"
   inkscape:window-maximized="0"
   inkscape:current-layer="Layer_1" />
















<g
   id="g3264"
   transform="translate(10,20)"><g
     transform="translate(-517.27501,-342.119)"
     id="g3">
	<path
   style="fill:#010101"
   inkscape:connector-curvature="0"
   id="path5"
   d="m 540.24,421.062 c 10e-4,-16.113 6.724,-30.695 17.604,-41.264 10.883,-10.566 25.914,-17.104 42.529,-17.104 16.614,0 31.647,6.537 42.529,17.104 10.882,10.568 17.604,25.148 17.604,41.264 h 1.767 c 0,-16.611 -6.938,-31.654 -18.141,-42.531 -11.201,-10.877 -26.676,-17.604 -43.76,-17.604 -17.082,0 -32.56,6.727 -43.761,17.604 -11.203,10.877 -18.141,25.92 -18.139,42.531 h 1.768 z" />
</g><g
     transform="translate(-517.27501,-342.119)"
     id="g7">
	<g
   id="g9">
		<defs
   id="defs11">
			<ellipse
   sodipodi:ry="50.563"
   sodipodi:rx="51.185001"
   sodipodi:cy="421.414"
   sodipodi:cx="600.375"
   ry="50.563"
   rx="51.185001"
   cy="421.414"
   cx="600.375"
   id="SVGID_1_" />
		</defs>
		<clipPath
   id="SVGID_2_">
			<use
   height="841.89001"
   width="1190.55"
   y="0"
   x="0"
   style="overflow:visible"
   id="use15"
   overflow="visible"
   xlink:href="#SVGID_1_" />
		</clipPath>
		<g
   id="g17"
   clip-path="url(#SVGID_2_)">
			<polyline
   style="fill:#010101"
   id="polyline19"
   points="573.792,377.494 599.295,421.342 599.975,420.953 574.473,377.105    " />
			<polyline
   style="fill:#010101"
   id="polyline21"
   points="577.951,375.335 599.279,421.311 599.992,420.984 578.665,375.011    " />
			<polyline
   style="fill:#010101"
   id="polyline23"
   points="581.906,373.703 599.266,421.279 600.006,421.015 582.644,373.439    " />
			<polyline
   style="fill:#010101"
   id="polyline25"
   points="586.504,372.265 599.256,421.244 600.016,421.05 587.264,372.07    " />
			<polyline
   style="fill:#010101"
   id="polyline27"
   points="570.002,379.919 599.314,421.371 599.958,420.923 570.646,379.472    " />
			<polyline
   style="fill:#010101"
   id="polyline29"
   points="566.459,382.648 599.334,421.398 599.935,420.896 567.06,382.146    " />
			<polyline
   style="fill:#010101"
   id="polyline31"
   points="549.137,412.843 599.568,421.531 599.703,420.763 549.271,412.074    " />
			<polyline
   style="fill:#010101"
   id="polyline33"
   points="550.143,408.216 599.531,421.523 599.738,420.771 550.348,407.464    " />
			<polyline
   style="fill:#010101"
   id="polyline35"
   points="551.449,404.054 599.5,421.514 599.769,420.781 551.72,403.324    " />
			<polyline
   style="fill:#010101"
   id="polyline37"
   points="553.33,399.574 599.465,421.5 599.805,420.794 553.669,398.871    " />
			<polyline
   style="fill:#010101"
   id="polyline39"
   points="555.252,395.955 599.437,421.484 599.833,420.812 555.646,395.281    " />
			<polyline
   style="fill:#010101"
   id="polyline41"
   points="557.767,392.06 599.408,421.465 599.863,420.83 558.223,391.425    " />
			<polyline
   style="fill:#010101"
   id="polyline43"
   points="560.381,388.703 599.381,421.445 599.889,420.849 560.891,388.107    " />
			<polyline
   style="fill:#010101"
   id="polyline45"
   points="563.225,385.613 599.357,421.424 599.912,420.873 563.779,385.062    " />
			<polyline
   style="fill:#010101"
   id="polyline47"
   points="590.568,371.378 599.249,421.214 600.021,421.082 591.342,371.248    " />
			<polyline
   style="fill:#010101"
   id="polyline49"
   points="594.903,370.619 599.244,421.181 600.026,421.113 595.685,370.554    " />
			<polyline
   style="fill:#010101"
   id="polyline51"
   points="599.242,370.585 599.242,421.146 600.027,421.146 600.027,370.585    " />
			<polyline
   style="fill:#010101"
   id="polyline53"
   points="548.418,417.191 599.601,421.535 599.669,420.759 548.484,416.414    " />
			<polyline
   style="fill:#010101"
   id="polyline55"
   points="548.451,421.537 599.635,421.537 599.635,420.757 548.451,420.757    " />
			<polyline
   style="fill:#010101"
   id="polyline57"
   points="624.799,377.105 599.295,420.953 599.975,421.342 625.478,377.494    " />
			<polyline
   style="fill:#010101"
   id="polyline59"
   points="620.605,375.011 599.279,420.984 599.992,421.311 621.319,375.335    " />
			<polyline
   style="fill:#010101"
   id="polyline61"
   points="616.626,373.439 599.266,421.015 600.006,421.279 617.364,373.703    " />
			<polyline
   style="fill:#010101"
   id="polyline63"
   points="612.007,372.07 599.256,421.05 600.016,421.244 612.767,372.265    " />
			<polyline
   style="fill:#010101"
   id="polyline65"
   points="628.625,379.472 599.314,420.923 599.958,421.371 629.267,379.919    " />
			<polyline
   style="fill:#010101"
   id="polyline67"
   points="632.211,382.146 599.334,420.896 599.935,421.398 632.812,382.648    " />
			<polyline
   style="fill:#010101"
   id="polyline69"
   points="650,412.074 599.568,420.763 599.703,421.531 650.135,412.843    " />
			<polyline
   style="fill:#010101"
   id="polyline71"
   points="648.923,407.464 599.531,420.771 599.738,421.523 649.128,408.216    " />
			<polyline
   style="fill:#010101"
   id="polyline73"
   points="647.551,403.324 599.5,420.781 599.769,421.514 647.822,404.054    " />
			<polyline
   style="fill:#010101"
   id="polyline75"
   points="645.601,398.871 599.465,420.794 599.805,421.5 645.941,399.574    " />
			<polyline
   style="fill:#010101"
   id="polyline77"
   points="643.624,395.281 599.437,420.812 599.833,421.484 644.018,395.955    " />
			<polyline
   style="fill:#010101"
   id="polyline79"
   points="641.049,391.425 599.408,420.83 599.863,421.465 641.506,392.06    " />
			<polyline
   style="fill:#010101"
   id="polyline81"
   points="638.381,388.107 599.381,420.849 599.889,421.445 638.889,388.703    " />
			<polyline
   style="fill:#010101"
   id="polyline83"
   points="635.492,385.062 599.357,420.873 599.912,421.424 636.047,385.613    " />
			<polyline
   style="fill:#010101"
   id="polyline85"
   points="607.93,371.248 599.249,421.082 600.021,421.214 608.703,371.378    " />
			<polyline
   style="fill:#010101"
   id="polyline87"
   points="603.584,370.554 599.244,421.113 600.026,421.181 604.366,370.619    " />
			<polyline
   style="fill:#010101"
   id="polyline89"
   points="650.787,416.414 599.601,420.759 599.669,421.535 650.853,417.191    " />
			<polyline
   style="fill:#010101"
   id="polyline91"
   points="650.82,420.757 599.635,420.757 599.635,421.537 650.82,421.537    " />
			<polyline
   style="fill:#010101"
   id="polyline93"
   points="574.473,465.189 599.975,421.342 599.295,420.953 573.792,464.801    " />
			<polyline
   style="fill:#010101"
   id="polyline95"
   points="578.665,467.285 599.992,421.311 599.279,420.984 577.951,466.959    " />
			<polyline
   style="fill:#010101"
   id="polyline97"
   points="582.644,468.857 600.006,421.279 599.266,421.015 581.906,468.592    " />
			<polyline
   style="fill:#010101"
   id="polyline99"
   points="587.264,470.225 600.016,421.244 599.256,421.05 586.504,470.029    " />
			<polyline
   style="fill:#010101"
   id="polyline101"
   points="570.646,462.822 599.958,421.371 599.314,420.923 570.002,462.375    " />
			<polyline
   style="fill:#010101"
   id="polyline103"
   points="567.06,460.148 599.935,421.398 599.334,420.896 566.459,459.646    " />
			<polyline
   style="fill:#010101"
   id="polyline105"
   points="549.271,430.221 599.703,421.531 599.568,420.763 549.137,429.453    " />
			<polyline
   style="fill:#010101"
   id="polyline107"
   points="550.348,434.83 599.738,421.523 599.531,420.771 550.143,434.078    " />
			<polyline
   style="fill:#010101"
   id="polyline109"
   points="551.72,438.971 599.769,421.514 599.5,420.781 551.449,438.238    " />
			<polyline
   style="fill:#010101"
   id="polyline111"
   points="553.669,443.422 599.805,421.5 599.465,420.794 553.33,442.719    " />
			<polyline
   style="fill:#010101"
   id="polyline113"
   points="555.646,447.014 599.833,421.484 599.437,420.812 555.252,446.34    " />
			<polyline
   style="fill:#010101"
   id="polyline115"
   points="558.223,450.871 599.863,421.465 599.408,420.83 557.767,450.236    " />
			<polyline
   style="fill:#010101"
   id="polyline117"
   points="560.891,454.188 599.889,421.445 599.381,420.849 560.381,453.592    " />
			<polyline
   style="fill:#010101"
   id="polyline119"
   points="563.779,457.232 599.912,421.424 599.357,420.873 563.225,456.682    " />
			<polyline
   style="fill:#010101"
   id="polyline121"
   points="591.342,471.047 600.021,421.214 599.249,421.082 590.568,470.914    " />
			<polyline
   style="fill:#010101"
   id="polyline123"
   points="595.685,471.742 600.026,421.181 599.244,421.113 594.903,471.676    " />
			<polyline
   style="fill:#010101"
   id="polyline125"
   points="600.027,471.707 600.027,421.146 599.242,421.146 599.242,471.707    " />
			<polyline
   style="fill:#010101"
   id="polyline127"
   points="548.484,425.879 599.669,421.535 599.601,420.759 548.418,425.104    " />
			<polyline
   style="fill:#010101"
   id="polyline129"
   points="625.478,464.801 599.975,420.953 599.295,421.342 624.799,465.189    " />
			<polyline
   style="fill:#010101"
   id="polyline131"
   points="621.319,466.959 599.992,420.984 599.279,421.311 620.605,467.285    " />
			<polyline
   style="fill:#010101"
   id="polyline133"
   points="617.364,468.592 600.006,421.015 599.266,421.279 616.626,468.857    " />
			<polyline
   style="fill:#010101"
   id="polyline135"
   points="612.767,470.029 600.016,421.05 599.256,421.244 612.007,470.225    " />
			<polyline
   style="fill:#010101"
   id="polyline137"
   points="629.267,462.375 599.958,420.923 599.314,421.371 628.625,462.822    " />
			<polyline
   style="fill:#010101"
   id="polyline139"
   points="632.812,459.646 599.935,420.896 599.334,421.398 632.211,460.148    " />
			<polyline
   style="fill:#010101"
   id="polyline141"
   points="650.135,429.453 599.703,420.763 599.568,421.531 650,430.221    " />
			<polyline
   style="fill:#010101"
   id="polyline143"
   points="649.128,434.078 599.738,420.771 599.531,421.523 648.923,434.83    " />
			<polyline
   style="fill:#010101"
   id="polyline145"
   points="647.822,438.238 599.769,420.781 599.5,421.514 647.551,438.971    " />
			<polyline
   style="fill:#010101"
   id="polyline147"
   points="645.941,442.719 599.805,420.794 599.465,421.5 645.601,443.422    " />
			<polyline
   style="fill:#010101"
   id="polyline149"
   points="644.018,446.34 599.833,420.812 599.437,421.484 643.624,447.014    " />
			<polyline
   style="fill:#010101"
   id="polyline151"
   points="641.506,450.236 599.863,420.83 599.408,421.465 641.049,450.871    " />
			<polyline
   style="fill:#010101"
   id="polyline153"
   points="638.889,453.592 599.889,420.849 599.381,421.445 638.381,454.188    " />
			<polyline
   style="fill:#010101"
   id="polyline155"
   points="636.047,456.682 599.912,420.873 599.357,421.424 635.492,457.232    " />
			<polyline
   style="fill:#010101"
   id="polyline157"
   points="608.703,470.914 600.021,421.082 599.249,421.214 607.93,471.047    " />
			<polyline
   style="fill:#010101"
   id="polyline159"
   points="604.366,471.676 600.026,421.113 599.244,421.181 603.584,471.742    " />
			<polyline
   style="fill:#010101"
   id="polyline161"
   points="650.853,425.104 599.669,420.759 599.601,421.535 650.787,425.879    " />
		</g>
	</g>
</g><g
     transform="translate(-517.27501,-342.119)"
     id="g163">
	<path
   style="fill:#010101"
   inkscape:connector-curvature="0"
   id="path165"
   d="m 654.32,421.062 h -0.822 c 0,14.417 -5.92,27.461 -15.497,36.915 -9.579,9.449 -22.808,15.297 -37.429,15.297 -14.621,0 -27.848,-5.848 -37.428,-15.297 -9.578,-9.453 -15.498,-22.498 -15.498,-36.915 0,-14.418 5.92,-27.465 15.498,-36.918 9.58,-9.451 22.807,-15.295 37.428,-15.297 14.621,0.002 27.85,5.846 37.429,15.297 9.577,9.453 15.497,22.5 15.497,36.918 h 0.822 0.823 c 10e-4,-14.875 -6.111,-28.348 -15.985,-38.09 -9.877,-9.744 -23.522,-15.771 -38.586,-15.771 -15.062,0 -28.711,6.027 -38.586,15.771 -9.875,9.742 -15.985,23.215 -15.985,38.09 0,14.872 6.11,28.344 15.985,38.088 9.875,9.744 23.522,15.77 38.586,15.77 15.062,0 28.709,-6.025 38.586,-15.77 9.874,-9.744 15.986,-23.217 15.985,-38.088 h -0.823 z" />
	<path
   style="fill:#010101"
   inkscape:connector-curvature="0"
   id="path167"
   d="m 651.526,421.062 h -0.55 c 0,13.78 -5.658,26.25 -14.812,35.284 -9.155,9.031 -21.799,14.619 -35.77,14.619 -13.972,0 -26.615,-5.588 -35.771,-14.619 -9.152,-9.033 -14.812,-21.504 -14.812,-35.284 0,-13.783 5.659,-26.254 14.812,-35.287 9.154,-9.033 21.799,-14.617 35.771,-14.619 13.971,0.002 26.613,5.586 35.77,14.619 9.152,9.033 14.812,21.504 14.812,35.287 h 0.55 0.55 c 0,-14.086 -5.786,-26.842 -15.141,-36.068 -9.351,-9.229 -22.271,-14.936 -36.539,-14.936 -14.268,0 -27.188,5.707 -36.541,14.936 -9.353,9.227 -15.141,21.982 -15.141,36.068 0,14.084 5.788,26.838 15.141,36.065 9.353,9.229 22.273,14.936 36.541,14.936 14.269,0 27.188,-5.707 36.539,-14.936 9.354,-9.227 15.141,-21.98 15.141,-36.065 h -0.55 z" />
</g><g
     transform="translate(-517.27501,-342.119)"
     id="g169">
	<path
   style="fill:#bb2527;stroke:#ffffff"
   inkscape:connector-curvature="0"
   d="m 594.875,381.55 c 0,-0.027 -0.002,-0.061 -0.002,-0.086"
   id="path574_16_" />
	<path
   style="fill:#bb2527;stroke:#ffffff"
   inkscape:connector-curvature="0"
   d="m 628.601,397.593 c 0.027,-0.01 0.055,-0.02 0.083,-0.027"
   id="path676_16_" />
	<path
   style="fill:#bb2527;stroke:#ffffff"
   inkscape:connector-curvature="0"
   d="m 623.333,434.361 c 0.018,0.023 0.035,0.047 0.055,0.07"
   id="path681_16_" />
	<path
   style="fill:#bb2527;stroke:#ffffff"
   inkscape:connector-curvature="0"
   d="m 586.282,440.732 c -0.02,0.023 -0.038,0.049 -0.054,0.068"
   id="path686_16_" />
	<g
   id="g175">
		<path
   style="fill:#11141c"
   inkscape:connector-curvature="0"
   d="m 599.132,412.027 c 0,0 -20.369,-5.676 -16.852,-28.912 5.317,-22.443 23.171,-23.123 27.279,-23.566 -1.058,1.047 -1.94,2.09 -2.377,3.387 -0.859,2.324 -0.138,4.531 1.104,6.725 1.578,2.537 2.541,5.178 2.906,8.615 0.661,4.84 -1.311,9.557 -5.077,12.473 -2.382,1.922 -5.229,2.629 -7.521,4.812 -1.77,1.822 -2.842,3.627 -3.184,6.73 0.072,5.898 1.697,6.683 3.722,9.736 z"
   id="path573_15_" />
		<path
   style="fill:#11141c"
   inkscape:connector-curvature="0"
   d="m 600.711,410.593 c 0,0 1.801,-20.531 22.706,-24.58 10.481,-0.693 18.511,1.549 24.729,8.354 2.406,3.359 4.169,7.021 5.796,10.822 -1.312,-0.705 -2.566,-1.242 -3.933,-1.283 -2.479,-0.135 -4.375,1.197 -6.107,3.031 -1.965,2.25 -4.203,3.943 -7.385,5.301 -4.435,2.051 -9.523,1.549 -13.414,-1.199 -2.535,-1.711 -4.045,-4.229 -6.805,-5.779 -2.26,-1.158 -4.303,-1.656 -7.367,-1.07 -5.623,1.79 -5.894,3.575 -8.22,6.403 z"
   id="path675_15_" />
		<path
   style="fill:#11141c"
   inkscape:connector-curvature="0"
   d="m 602.146,412.044 c 0,0 20.043,-4.814 30.521,13.725 3.989,9.715 4.418,18.041 -0.066,26.102 -2.421,3.346 -5.332,6.182 -8.42,8.932 0.254,-1.469 0.365,-2.828 -0.031,-4.139 -0.655,-2.387 -2.524,-3.768 -4.813,-4.828 -2.761,-1.146 -5.076,-2.73 -7.373,-5.314 -3.351,-3.551 -4.494,-8.537 -3.125,-13.102 0.822,-2.951 2.729,-5.18 3.324,-8.287 0.381,-2.514 0.2,-4.604 -1.328,-7.331 -3.486,-4.761 -5.269,-4.453 -8.689,-5.758 z"
   id="path680_15_" />
		<path
   style="fill:#11141c"
   inkscape:connector-curvature="0"
   d="m 601.749,414.132 c 0,0 10.252,17.879 -4.603,33.145 -8.206,6.555 -16.076,9.307 -25.068,7.27 -3.893,-1.391 -7.434,-3.387 -10.937,-5.582 1.479,-0.168 2.817,-0.439 3.962,-1.188 2.109,-1.305 2.904,-3.482 3.277,-5.975 0.331,-2.969 1.203,-5.641 3.037,-8.572 2.469,-4.211 6.932,-6.707 11.692,-6.678 3.062,-0.041 5.738,1.164 8.89,0.859 2.518,-0.336 4.477,-1.096 6.658,-3.324 3.596,-4.685 2.798,-6.302 3.092,-9.955 z"
   id="path685_15_" />
		<path
   style="fill:#11141c"
   inkscape:connector-curvature="0"
   d="m 599.51,413.789 c 0,0 -13.463,15.61 -32.793,6.67 -8.909,-5.561 -14.116,-12.072 -15.188,-21.229 0.017,-4.135 0.726,-8.139 1.629,-12.172 0.649,1.34 1.354,2.514 2.441,3.344 1.928,1.559 4.25,1.586 6.727,1.105 2.91,-0.678 5.717,-0.742 9.089,0.018 4.799,0.93 8.631,4.309 10.186,8.811 1.055,2.875 0.807,5.797 2.141,8.67 1.156,2.262 2.522,3.855 5.353,5.174 5.61,1.829 6.872,0.542 10.415,-0.391 z"
   id="path690_15_" />
	</g>
	<path
   style="fill:#bb2527;stroke:#ffffff"
   inkscape:connector-curvature="0"
   d="m 569.281,408.035 c -0.03,-0.012 -0.059,-0.018 -0.087,-0.029"
   id="path691_12_" />
	<path
   style="fill:none;stroke:#ffffff"
   inkscape:connector-curvature="0"
   d="m 602.352,417.326 c 1.974,9.627 -8.376,22.35 -16.142,23.354"
   id="path687_2_" />
	<path
   style="fill:none;stroke:#ffffff"
   inkscape:connector-curvature="0"
   d="m 596.695,415.414 c -8.426,5.064 -23.862,-0.473 -27.393,-7.467"
   id="path692_2_" />
	<path
   style="fill:none;stroke:#ffffff;stroke-width:2"
   inkscape:connector-curvature="0"
   d="M 594.961,381.548"
   id="path575_40_" />
	<path
   style="fill:none;stroke:#ffffff;stroke-width:2"
   inkscape:connector-curvature="0"
   d="M 596.689,409.884"
   id="path575_4_" />
	<path
   style="fill:none;stroke:#ffffff"
   inkscape:connector-curvature="0"
   d="m 605.38,412.363 c 9.798,0.807 19.103,14.315 17.884,22.053"
   id="path682_2_" />
	<polygon
   style="fill:#ffffff"
   points="622.268,436.104 623.451,438.172 625.795,437.551 624.182,439.445 625.362,441.51 623.186,440.607 621.572,442.502 621.842,440.057 619.656,439.16 622.005,438.547 "
   id="polygon683_2_" />
</g><g
     transform="translate(-517.27501,-342.119)"
     id="g189">
	<path
   style="fill:#11141c"
   inkscape:connector-curvature="0"
   id="path191"
   d="m 667.971,420.945 h -2.016 c 0,8.997 -1.846,17.557 -5.184,25.348 -5.008,11.688 -13.382,21.639 -23.921,28.666 -10.542,7.027 -23.24,11.131 -36.93,11.133 -18.25,-0.002 -34.75,-7.297 -46.704,-19.09 -5.974,-5.896 -10.808,-12.92 -14.146,-20.709 -3.34,-7.791 -5.185,-16.352 -5.185,-25.348 0,-8.996 1.845,-17.559 5.185,-25.35 5.009,-11.686 13.38,-21.639 23.923,-28.666 10.541,-7.027 23.238,-11.131 36.928,-11.133 18.25,0.002 34.75,7.297 46.703,19.092 5.975,5.896 10.809,12.916 14.146,20.707 3.337,7.791 5.184,16.354 5.184,25.35 h 2.017 2.014 c 0,-9.549 -1.962,-18.656 -5.511,-26.936 -5.323,-12.418 -14.207,-22.977 -25.388,-30.432 -11.181,-7.455 -24.666,-11.809 -39.164,-11.807 -19.334,-0.002 -36.857,7.736 -49.533,20.25 -6.337,6.258 -11.471,13.709 -15.019,21.986 -3.55,8.279 -5.512,17.387 -5.512,26.936 0,9.549 1.962,18.659 5.512,26.936 5.32,12.418 14.206,22.977 25.388,30.432 11.18,7.455 24.666,11.809 39.164,11.809 19.332,0 36.855,-7.738 49.53,-20.252 6.341,-6.256 11.474,-13.709 15.021,-21.988 3.549,-8.275 5.511,-17.385 5.511,-26.934 h -2.013 l 0,0 z" />
</g><path
     style="fill:#f2f2f2"
     inkscape:connector-curvature="0"
     id="path193"
     d="m 77.59899,38.998002 c 0,0 -3.589,2.959 -4.164,10.631 -0.577,7.672 1.207,10.924 1.207,10.924 l 0.723,-0.641 c 0,0 -1.615,-3.953 -1.248,-10.283 0.367,-6.33 3.482,-10.631 3.482,-10.631 z" /><path
     style="fill:#f2f2f2"
     inkscape:connector-curvature="0"
     id="path195"
     d="m 111.22099,56.685002 c 0,0 -4.094,-2.203 -11.415,0.158 -7.323,2.361 -9.66,5.24 -9.66,5.24 l 0.866,0.428 c 0,0 3.05,-2.986 9.052,-5.037 5.998,-2.049 11.157,-0.789 11.157,-0.789 z" /><path
     style="fill:#f2f2f2"
     inkscape:connector-curvature="0"
     id="path197"
     d="m 81.78699,34.082002 c 0,0 0.789,-0.082 0.922,-0.842 0.17,-0.973 -1.012,-1.49 -1.012,-1.49 l 0.416,-0.918 -0.553,-0.248 -0.416,0.918 -0.402,-0.18 0.412,-0.92 -0.56,-0.25 -0.413,0.92 -1.15,-0.518 -0.26,0.58 0.477,0.217 c 0,0 0.119,0.053 0.154,0.141 0.042,0.1 -0.008,0.18 -0.008,0.18 l -0.599,1.346 -0.562,1.25 c 0,0 -0.042,0.1 -0.129,0.146 -0.106,0.059 -0.171,0.023 -0.171,0.023 l -0.488,-0.221 -0.267,0.594 1.101,0.492 -0.422,0.945 0.563,0.252 0.42,-0.945 0.406,0.184 -0.42,0.943 0.547,0.246 0.424,-0.943 c 0,0 1.312,0.807 2.078,-0.184 0.809,-1.041 -0.088,-1.718 -0.088,-1.718 z m -1.336,-2.139 0.613,0.275 c 0,0 0.683,0.307 0.428,0.871 -0.238,0.523 -0.782,0.33 -0.782,0.33 l -0.767,-0.344 0.508,-1.132 z m 0.523,3.049 c -0.408,0.662 -1.146,0.219 -1.146,0.219 l -0.699,-0.312 0.558,-1.242 0.698,0.311 c -0.002,-0.002 0.977,0.395 0.589,1.024 z" /><path
     style="fill:#f2f2f2"
     inkscape:connector-curvature="0"
     id="path199"
     d="m 116.27999,59.259002 c 0,0 0.134,0.781 0.903,0.863 0.979,0.104 1.416,-1.111 1.416,-1.111 l 0.945,0.355 0.21,-0.568 -0.942,-0.354 0.15,-0.414 0.946,0.352 0.212,-0.574 -0.945,-0.352 0.438,-1.184 -0.595,-0.221 -0.186,0.49 c 0,0 -0.045,0.123 -0.129,0.164 -0.098,0.049 -0.182,0.004 -0.182,0.004 l -1.382,-0.508 -1.285,-0.479 c 0,0 -0.101,-0.037 -0.152,-0.119 -0.064,-0.102 -0.035,-0.168 -0.035,-0.168 l 0.188,-0.502 -0.61,-0.229 -0.418,1.131 -0.971,-0.355 -0.215,0.578 0.972,0.357 -0.154,0.416 -0.972,-0.355 -0.209,0.562 0.971,0.357 c 0,0 -0.716,1.365 0.321,2.064 1.091,0.738 1.71,-0.2 1.71,-0.2 z m 2.045,-1.476 -0.234,0.629 c 0,0 -0.261,0.703 -0.841,0.486 -0.538,-0.203 -0.381,-0.76 -0.381,-0.76 l 0.291,-0.787 1.165,0.432 z m -3.007,0.723 c -0.688,-0.361 -0.294,-1.129 -0.294,-1.129 l 0.267,-0.717 1.276,0.473 -0.267,0.717 c 0.001,-0.001 -0.327,1.003 -0.982,0.656 z" /><path
     style="fill:#ffffff"
     inkscape:connector-curvature="0"
     id="path201"
     d="m 107.81899,95.018 c 0,0 -0.621,-4.607 -6.834,-9.144998 -6.214,-4.537 -9.917,-4.738 -9.917,-4.738 l 0.162,0.951 c 0,0 4.21,0.715 9.396,4.365 5.183,3.650998 7.193,8.566998 7.193,8.566998 z" /><path
     style="fill:#f2f2f2"
     inkscape:connector-curvature="0"
     id="path203"
     d="m 107.94199,101.262 c 0,0 -0.554,0.568 -0.169,1.238 0.491,0.855 1.729,0.496 1.729,0.496 l 0.27,0.971 0.582,-0.164 -0.267,-0.971 0.423,-0.119 0.272,0.971 0.59,-0.166 -0.271,-0.971 1.215,-0.34 -0.172,-0.611 -0.505,0.141 c 0,0 -0.125,0.033 -0.209,-0.01 -0.097,-0.051 -0.109,-0.146 -0.109,-0.146 l -0.401,-1.414 -0.367,-1.32 c 0,0 -0.028,-0.104 0.007,-0.193 0.043,-0.113 0.116,-0.127 0.116,-0.127 l 0.516,-0.146 -0.175,-0.625 -1.16,0.324 -0.281,-0.994 -0.596,0.166 0.283,0.996 -0.43,0.119 -0.282,-0.994 -0.578,0.162 0.279,0.994 c 0,0 -1.524,0.223 -1.479,1.473 0.046,1.313 1.169,1.26 1.169,1.26 z m 2.394,0.787 -0.646,0.184 c 0,0 -0.722,0.201 -0.886,-0.396 -0.153,-0.555 0.39,-0.754 0.39,-0.754 l 0.809,-0.229 0.333,1.195 z m -2.351,-2.008 c -0.11,-0.77 0.742,-0.9 0.742,-0.9 l 0.734,-0.207 0.368,1.312 -0.736,0.207 c 0.001,-0.002 -1.005,0.323 -1.108,-0.412 z" /><path
     style="fill:#ffffff"
     inkscape:connector-curvature="0"
     id="path205"
     d="m 64.74199,97.963 c 0,0 4.188,-2.021 6.568,-9.338 2.383,-7.315998 1.423,-10.898998 1.423,-10.898998 l -0.854,0.451 c 0,0 0.63,4.225 -1.229,10.285998 -1.861,6.063 -5.908,9.5 -5.908,9.5 z" /><path
     style="fill:#ffffff"
     inkscape:connector-curvature="0"
     id="path207"
     d="m 59.19799,99.668 c 0,0 -0.712,-0.352 -1.229,0.223 -0.658,0.732 0.067,1.801 0.067,1.801 l -0.842,0.557 0.338,0.504 0.84,-0.557 0.246,0.365 -0.838,0.562 0.34,0.508 0.84,-0.559 0.7,1.049 0.528,-0.354 -0.289,-0.438 c 0,0 -0.074,-0.109 -0.058,-0.201 0.019,-0.107 0.104,-0.15 0.104,-0.15 l 1.222,-0.818 1.142,-0.762 c 0,0 0.089,-0.061 0.186,-0.055 0.121,0.006 0.156,0.072 0.156,0.072 l 0.298,0.443 0.541,-0.361 -0.67,-1 0.858,-0.578 -0.345,-0.512 -0.856,0.576 -0.246,-0.369 0.856,-0.578 -0.334,-0.498 -0.858,0.574 c 0,0 -0.686,-1.381 -1.859,-0.949 -1.237,0.454 -0.838,1.505 -0.838,1.505 z m -0.004,2.52 -0.373,-0.559 c 0,0 -0.416,-0.621 0.1,-0.965 0.48,-0.318 0.838,0.137 0.838,0.137 l 0.468,0.697 -1.033,0.69 z m 1.177,-2.86 c 0.697,-0.344 1.087,0.426 1.087,0.426 l 0.425,0.635 -1.132,0.758 -0.425,-0.635 c 0,0 -0.62,-0.856 0.045,-1.184 z" /><path
     style="fill:#f2f2f2"
     inkscape:connector-curvature="0"
     id="path209"
     d="m 46.54299,58.683002 c 0,0 0.131,-0.781 -0.566,-1.113 -0.893,-0.422 -1.705,0.58 -1.705,0.58 l -0.774,-0.646 -0.385,0.467 0.771,0.646 -0.279,0.34 -0.777,-0.645 -0.391,0.473 0.776,0.645 -0.805,0.973 0.488,0.404 0.336,-0.402 c 0,0 0.082,-0.102 0.177,-0.111 0.106,-0.014 0.173,0.057 0.173,0.057 l 1.137,0.936 1.054,0.877 c 0,0 0.084,0.064 0.104,0.162 0.029,0.117 -0.022,0.17 -0.022,0.17 l -0.342,0.412 0.501,0.416 0.769,-0.93 0.799,0.656 0.394,-0.475 -0.798,-0.656 0.283,-0.344 0.799,0.656 0.384,-0.463 -0.798,-0.658 c 0,0 1.127,-1.051 0.378,-2.053 -0.79,-1.055 -1.681,-0.374 -1.681,-0.374 z m -2.419,0.717 0.429,-0.518 c 0,0 0.478,-0.576 0.953,-0.18 0.443,0.369 0.109,0.842 0.109,0.842 l -0.535,0.645 -0.956,-0.789 z m 3.078,0.313 c 0.528,0.568 -0.097,1.162 -0.097,1.162 l -0.488,0.59 -1.049,-0.869 0.488,-0.588 c 0.002,-10e-4 0.643,-0.84 1.146,-0.295 z" /><g
     transform="translate(-517.27501,-342.119)"
     id="g211">
	<polygon
   style="fill:#11141c"
   id="polygon213"
   points="662.555,446.326 673.293,442.736 517.275,442.736 517.275,401.457 536.033,394.175 537.399,395.539 521.762,401.457 677.182,401.457 677.182,443.18 662.223,448.652 " />
</g><g
     transform="translate(-517.27501,-342.119)"
     id="g215">
	<path
   style="fill:#010101"
   inkscape:connector-curvature="0"
   id="path217"
   d="m 552.73,451.834 c 0.524,0.791 0.355,1.355 -0.393,1.85 l -0.24,0.16 c -0.537,0.355 -0.973,0.426 -1.404,0.074 0.19,0.584 -0.077,1.033 -0.637,1.404 l -0.428,0.285 c -0.764,0.504 -1.438,0.418 -1.962,-0.373 l -0.775,-1.17 5.084,-3.371 0.755,1.141 z m -4.547,3.057 c 0.275,0.414 0.617,0.457 1.089,0.146 l 0.451,-0.299 c 0.565,-0.375 0.604,-0.727 0.283,-1.211 l -0.328,-0.494 -1.896,1.256 0.401,0.602 z m 2.299,-1.764 c 0.299,0.449 0.6,0.586 1.128,0.234 l 0.299,-0.197 c 0.45,-0.299 0.565,-0.596 0.298,-1.002 l -0.371,-0.561 -1.642,1.09 0.288,0.436 z" />
	<path
   style="fill:#010101"
   inkscape:connector-curvature="0"
   id="path219"
   d="m 554.732,454.652 -4.888,3.648 -0.405,-0.545 4.886,-3.648 0.407,0.545 z" />
	<path
   style="fill:#010101"
   inkscape:connector-curvature="0"
   id="path221"
   d="m 551.479,460.381 4.213,-3.5 -0.718,-0.865 0.476,-0.395 1.87,2.252 -0.476,0.395 -0.718,-0.865 -4.216,3.5 -0.431,-0.522 z" />
	<path
   style="fill:#010101"
   inkscape:connector-curvature="0"
   id="path223"
   d="m 558.888,461.699 -0.396,0.379 -0.444,-0.467 0.422,-0.404 c 0.396,-0.379 0.487,-0.764 0.145,-1.123 -0.337,-0.354 -0.731,-0.289 -1.131,0.09 l -2.333,2.223 c -0.396,0.379 -0.479,0.771 -0.144,1.125 0.343,0.359 0.731,0.289 1.13,-0.09 l 0.573,-0.547 0.444,0.467 -0.549,0.521 c -0.668,0.639 -1.41,0.744 -2.06,0.062 -0.645,-0.676 -0.503,-1.41 0.167,-2.051 l 2.281,-2.174 c 0.67,-0.639 1.411,-0.744 2.056,-0.066 0.647,0.682 0.507,1.417 -0.161,2.055 z" />
	<path
   style="fill:#010101"
   inkscape:connector-curvature="0"
   id="path225"
   d="m 559.866,462.656 c 0.626,-0.689 1.372,-0.824 2.062,-0.197 0.695,0.633 0.633,1.389 0.006,2.078 l -2.121,2.334 c -0.622,0.682 -1.373,0.822 -2.07,0.189 -0.688,-0.629 -0.619,-1.391 10e-4,-2.07 l 2.122,-2.334 z m -1.648,2.811 c -0.375,0.412 -0.418,0.809 -0.059,1.137 0.368,0.334 0.752,0.248 1.127,-0.164 l 2.169,-2.385 c 0.368,-0.406 0.425,-0.805 0.057,-1.139 -0.36,-0.328 -0.758,-0.24 -1.126,0.166 l -2.168,2.385 z" />
	<path
   style="fill:#010101"
   inkscape:connector-curvature="0"
   id="path227"
   d="m 564.524,464.758 -3.856,4.729 -0.527,-0.43 3.857,-4.73 0.526,0.431 z" />
	<path
   style="fill:#010101"
   inkscape:connector-curvature="0"
   id="path229"
   d="m 562.54,470.945 -0.492,-0.359 3.585,-4.936 0.697,0.506 -1.448,4.396 2.591,-3.566 0.486,0.354 -3.584,4.938 -0.571,-0.416 1.635,-4.908 -2.899,3.991 z" />
	<path
   style="fill:#010101"
   inkscape:connector-curvature="0"
   id="path231"
   d="m 571.125,472.863 c -0.252,0.438 -0.812,0.59 -1.25,0.338 -0.438,-0.252 -0.591,-0.812 -0.339,-1.25 0.251,-0.439 0.812,-0.59 1.25,-0.338 0.438,0.252 0.59,0.813 0.339,1.25 z" />
	<path
   style="fill:#010101"
   inkscape:connector-curvature="0"
   id="path233"
   d="m 574.583,476.65 -0.711,1.027 -0.574,-0.254 3.533,-5.105 0.899,0.395 -1.396,6.053 -0.622,-0.271 0.281,-1.221 -1.41,-0.624 z m 0.317,-0.498 1.243,0.549 0.793,-3.498 -2.036,2.949 z" />
	<path
   style="fill:#010101"
   inkscape:connector-curvature="0"
   id="path235"
   d="m 581.935,475.902 -0.057,0.154 -0.605,-0.219 0.067,-0.188 c 0.186,-0.518 0.098,-0.891 -0.362,-1.057 -0.459,-0.164 -0.765,0.068 -0.946,0.578 -0.462,1.287 1.422,2.1 0.843,3.715 -0.312,0.869 -0.933,1.285 -1.81,0.971 -0.878,-0.314 -1.085,-1.027 -0.772,-1.896 l 0.117,-0.328 0.599,0.217 -0.129,0.359 c -0.187,0.518 -0.081,0.896 0.379,1.062 0.459,0.164 0.781,-0.062 0.966,-0.578 0.458,-1.279 -1.416,-2.09 -0.838,-3.705 0.316,-0.887 0.925,-1.287 1.785,-0.98 0.869,0.313 1.077,1.026 0.763,1.895 z" />
	<path
   style="fill:#010101"
   inkscape:connector-curvature="0"
   id="path237"
   d="m 585.81,477.043 -0.045,0.16 -0.621,-0.176 0.054,-0.193 c 0.149,-0.529 0.037,-0.895 -0.432,-1.027 -0.471,-0.133 -0.76,0.119 -0.907,0.641 -0.372,1.316 1.562,1.998 1.098,3.65 -0.252,0.889 -0.845,1.348 -1.741,1.094 -0.897,-0.254 -1.152,-0.951 -0.901,-1.84 l 0.096,-0.336 0.611,0.174 -0.104,0.367 c -0.149,0.529 -0.021,0.902 0.448,1.033 0.472,0.135 0.776,-0.115 0.927,-0.643 0.37,-1.311 -1.559,-1.99 -1.09,-3.643 0.256,-0.904 0.834,-1.35 1.715,-1.102 0.889,0.255 1.143,0.952 0.892,1.841 z" />
	<path
   style="fill:#010101"
   inkscape:connector-curvature="0"
   id="path239"
   d="m 587.11,477.375 c 0.19,-0.914 0.768,-1.406 1.681,-1.217 0.921,0.193 1.25,0.877 1.06,1.791 l -0.647,3.088 c -0.189,0.904 -0.768,1.406 -1.688,1.213 -0.913,-0.191 -1.24,-0.883 -1.05,-1.787 l 0.644,-3.088 z m 0.003,3.26 c -0.113,0.547 0.051,0.91 0.527,1.01 0.485,0.102 0.775,-0.166 0.889,-0.713 l 0.661,-3.156 c 0.113,-0.539 -0.041,-0.908 -0.526,-1.012 -0.479,-0.1 -0.775,0.178 -0.891,0.715 l -0.66,3.156 z" />
	<path
   style="fill:#010101"
   inkscape:connector-curvature="0"
   id="path241"
   d="m 593.942,478.549 -0.073,0.545 -0.64,-0.086 0.078,-0.58 c 0.074,-0.543 -0.098,-0.902 -0.59,-0.969 -0.483,-0.064 -0.753,0.232 -0.827,0.777 l -0.434,3.195 c -0.074,0.547 0.105,0.902 0.592,0.971 0.489,0.064 0.752,-0.232 0.824,-0.777 l 0.107,-0.785 0.64,0.086 -0.103,0.752 c -0.124,0.916 -0.638,1.463 -1.571,1.336 -0.925,-0.125 -1.273,-0.789 -1.15,-1.705 l 0.425,-3.129 c 0.124,-0.914 0.639,-1.461 1.562,-1.336 0.935,0.127 1.285,0.791 1.16,1.705 z" />
	<path
   style="fill:#010101"
   inkscape:connector-curvature="0"
   id="path243"
   d="m 596.172,477.266 -0.497,6.08 -0.678,-0.057 0.496,-6.08 0.679,0.057 z" />
	<path
   style="fill:#010101"
   inkscape:connector-curvature="0"
   id="path245"
   d="m 598.17,482.26 -0.266,1.223 -0.629,-0.016 1.314,-6.07 0.984,0.023 1.021,6.127 -0.679,-0.016 -0.206,-1.234 -1.539,-0.037 z m 0.099,-0.582 1.36,0.033 -0.604,-3.537 -0.756,3.504 z" />
	<path
   style="fill:#010101"
   inkscape:connector-curvature="0"
   id="path247"
   d="m 603.144,483.469 -0.264,-5.48 -1.125,0.055 -0.029,-0.619 2.927,-0.141 0.03,0.617 -1.124,0.055 0.265,5.48 -0.68,0.033 z" />
	<path
   style="fill:#010101"
   inkscape:connector-curvature="0"
   id="path249"
   d="m 606.518,477.104 0.607,6.066 -0.678,0.068 -0.607,-6.068 0.678,-0.066 z" />
	<path
   style="fill:#010101"
   inkscape:connector-curvature="0"
   id="path251"
   d="m 608.114,478.406 c -0.143,-0.922 0.223,-1.588 1.145,-1.73 0.931,-0.145 1.479,0.379 1.623,1.301 l 0.482,3.119 c 0.143,0.914 -0.222,1.588 -1.151,1.732 -0.922,0.143 -1.474,-0.389 -1.614,-1.303 l -0.485,-3.119 z m 1.153,3.051 c 0.086,0.551 0.368,0.834 0.851,0.76 0.491,-0.076 0.666,-0.43 0.58,-0.982 l -0.493,-3.188 c -0.084,-0.543 -0.358,-0.836 -0.852,-0.76 -0.482,0.076 -0.664,0.439 -0.58,0.982 l 0.494,3.188 z" />
	<path
   style="fill:#010101"
   inkscape:connector-curvature="0"
   id="path253"
   d="m 613.915,482.084 -0.594,0.137 -1.364,-5.947 0.84,-0.191 2.362,3.98 -0.986,-4.297 0.586,-0.135 1.365,5.945 -0.688,0.158 -2.625,-4.459 1.104,4.809 z" />
	<path
   style="fill:#010101"
   inkscape:connector-curvature="0"
   id="path255"
   d="m 621.021,476.885 c 0.163,0.479 -0.092,0.998 -0.57,1.16 -0.479,0.164 -0.998,-0.092 -1.16,-0.57 -0.163,-0.477 0.093,-0.996 0.569,-1.16 0.477,-0.165 0.998,0.091 1.161,0.57 z" />
	<path
   style="fill:#010101"
   inkscape:connector-curvature="0"
   id="path257"
   d="m 625.506,475.404 1.148,2.492 -0.616,0.283 -2.555,-5.541 0.616,-0.283 1.149,2.492 1.36,-0.627 -1.148,-2.492 0.618,-0.283 2.553,5.539 -0.616,0.283 -1.149,-2.492 -1.36,0.629 z" />
	<path
   style="fill:#010101"
   inkscape:connector-curvature="0"
   id="path259"
   d="m 627.99,472.127 c -0.447,-0.816 -0.334,-1.564 0.481,-2.014 0.825,-0.453 1.519,-0.15 1.968,0.666 l 1.521,2.764 c 0.444,0.809 0.334,1.566 -0.49,2.02 -0.817,0.449 -1.515,0.137 -1.961,-0.672 l -1.519,-2.764 z m 2.124,2.471 c 0.269,0.488 0.63,0.656 1.058,0.422 0.436,-0.238 0.479,-0.631 0.211,-1.119 l -1.555,-2.824 c -0.265,-0.48 -0.623,-0.66 -1.058,-0.422 -0.428,0.236 -0.474,0.639 -0.209,1.119 l 1.553,2.824 z" />
	<path
   style="fill:#010101"
   inkscape:connector-curvature="0"
   id="path261"
   d="m 634.683,473.604 -0.512,0.33 -3.309,-5.127 0.727,-0.467 3.575,2.939 -2.39,-3.705 0.506,-0.326 3.306,5.125 -0.594,0.383 -3.982,-3.299 2.673,4.147 z" />
	<path
   style="fill:#010101"
   inkscape:connector-curvature="0"
   id="path263"
   d="m 637.46,466.004 0.313,0.418 -0.517,0.389 -0.334,-0.447 c -0.331,-0.439 -0.703,-0.574 -1.103,-0.275 -0.392,0.293 -0.372,0.693 -0.043,1.133 l 1.938,2.582 c 0.33,0.439 0.711,0.566 1.102,0.273 0.397,-0.299 0.373,-0.693 0.042,-1.133 l -0.731,-0.977 -0.503,0.377 -0.366,-0.488 1.019,-0.764 1.079,1.436 c 0.555,0.74 0.572,1.49 -0.182,2.055 -0.746,0.561 -1.461,0.334 -2.017,-0.404 l -1.896,-2.523 c -0.554,-0.74 -0.572,-1.488 0.174,-2.049 0.755,-0.57 1.47,-0.343 2.025,0.397 z" />
	<path
   style="fill:#010101"
   inkscape:connector-curvature="0"
   id="path265"
   d="m 642.356,464.41 0.148,0.684 1.397,1.5 -0.498,0.463 -4.163,-4.465 0.498,-0.463 2.011,2.154 -0.823,-3.262 0.505,-0.471 0.767,3.086 3.434,1.346 -0.509,0.475 -2.767,-1.047 z" />
	<path
   style="fill:#010101"
   inkscape:connector-curvature="0"
   id="path267"
   d="m 643.309,460.75 c -0.684,-0.637 -0.808,-1.385 -0.171,-2.066 0.642,-0.689 1.396,-0.617 2.079,0.02 l 2.309,2.152 c 0.676,0.631 0.808,1.385 0.164,2.074 -0.636,0.682 -1.396,0.604 -2.073,-0.027 l -2.308,-2.153 z m 2.791,1.686 c 0.408,0.381 0.805,0.428 1.137,0.068 0.341,-0.359 0.259,-0.748 -0.149,-1.129 l -2.358,-2.199 c -0.401,-0.375 -0.798,-0.436 -1.138,-0.07 -0.333,0.355 -0.251,0.756 0.15,1.129 l 2.358,2.201 z" />
	<path
   style="fill:#010101"
   inkscape:connector-curvature="0"
   id="path269"
   d="m 650.142,460.061 -0.383,0.473 -4.738,-3.838 0.541,-0.67 4.314,1.678 -3.426,-2.773 0.38,-0.467 4.735,3.838 -0.442,0.547 -4.812,-1.891 3.831,3.103 z" />
	<path
   style="fill:#010101"
   inkscape:connector-curvature="0"
   id="path271"
   d="m 650.406,451.988 0.43,0.299 -0.37,0.529 -0.457,-0.32 c -0.449,-0.314 -0.845,-0.326 -1.13,0.082 -0.279,0.396 -0.139,0.771 0.312,1.088 l 2.642,1.848 c 0.45,0.314 0.852,0.318 1.132,-0.08 0.285,-0.408 0.139,-0.775 -0.312,-1.09 l -0.999,-0.699 -0.357,0.514 -0.501,-0.35 0.729,-1.043 1.47,1.029 c 0.759,0.529 1.008,1.236 0.469,2.008 -0.533,0.764 -1.283,0.77 -2.04,0.242 l -2.584,-1.809 c -0.758,-0.529 -1.008,-1.236 -0.474,-2 0.534,-0.771 1.283,-0.777 2.04,-0.248 z" />
</g><g
     transform="translate(-517.27501,-342.119)"
     id="g273">
	<path
   style="fill:#ffffff"
   inkscape:connector-curvature="0"
   id="path275"
   d="m 573.112,414.799 v 0.98 c 0,2.83 -0.866,4.598 -2.791,5.501 v 0.078 c 2.319,0.9 3.223,2.943 3.223,5.854 v 2.238 c 0,4.242 -2.239,6.52 -6.563,6.52 h -6.794 v -27.5 h 6.521 c 4.478,10e-4 6.404,2.087 6.404,6.329 z m -8.605,-2.398 v 7.27 h 1.689 c 1.61,0 2.591,-0.709 2.591,-2.908 v -1.531 c 0,-1.965 -0.666,-2.83 -2.198,-2.83 h -2.082 l 0,-10e-4 z m 0,11.199 v 8.443 h 2.474 c 1.456,0 2.241,-0.666 2.241,-2.709 v -2.396 c 0,-2.555 -0.826,-3.34 -2.791,-3.34 h -1.924 v 0.002 z" />
	<path
   style="fill:#ffffff"
   inkscape:connector-curvature="0"
   id="path277"
   d="m 594.048,435.973 h -4.359 l -0.746,-4.988 h -5.303 l -0.748,4.988 h -3.967 l 4.398,-27.501 h 6.327 l 4.398,27.501 z m -9.859,-8.723 h 4.164 l -2.043,-13.906 h -0.079 l -2.042,13.906 z" />
	<path
   style="fill:#ffffff"
   inkscape:connector-curvature="0"
   id="path279"
   d="m 604.303,435.973 h -4.323 v -27.501 h 4.323 v 11.789 h 4.909 v -11.789 h 4.401 v 27.501 h -4.401 v -11.785 h -4.909 v 11.785 z" />
	<path
   style="fill:#ffffff"
   inkscape:connector-curvature="0"
   id="path281"
   d="m 626.339,425.01 -1.336,2.518 v 8.445 h -4.322 v -27.501 h 4.322 v 11.906 h 0.079 l 5.578,-11.906 h 4.323 l -6.013,12.26 6.013,15.242 h -4.44 l -4.204,-10.964 z" />
</g></g>
</svg>